<?xml version="1.0" encoding="utf-8"?>
<?xml-stylesheet type="text/xsl" href="rss1.xsl"?>
<rss version="2.0" xmlns:atom="http://www.w3.org/2005/Atom" xmlns:content="http://purl.org/rss/1.0/modules/content/" xmlns:dc="http://purl.org/dc/elements/1.1/" xmlns:media="http://search.yahoo.com/mrss/">
<channel>
 <title>Getty</title>
 <link>http://www.gettyimg.com/</link>
 <atom:link href="http://www.gettyimg.com/" rel="self" type="application/rss+xml" />

 
                <item>
                <title><![CDATA[【Cinema Center】SERIES - Game Shakers - Season 3 - 1080p Amazon WEB-DL DDP5.1 H.264-LAZY]]></title>
                <link><![CDATA[https://sharemania.us/threads/game-shakers-season-3-1080p-amazon-web-dl-ddp5-1-h-264-lazy.234298/]]></link>
                <description><![CDATA[<article>
<blockquote class="messageText SelectQuoteContainer ugc baseHtml">
Game Shakers:<img src="http:////cdn2.broadcasthe.net/tvdb/banners/graphical/299779-g.jpg" class="bbCodeImage LbImage" alt="[​IMG]" data-url="http:////cdn2.broadcasthe.net/tvdb/banners/graphical/299779-g.jpg" style=""> <br>
<br>
<div class="bbCodeBlock bbCodeQuote">
<aside>
<blockquote class="quoteContainer"><div class="quote"><i><b>Synopsis:</b></i><br>
Game Shakers is an upcoming live-action sitcom created by Dan Schneider that is slated to premiere on September 12, 2015.The series was picked up for a season of 26 episodes. The series is about two 12-year-old girls who start a multi-million-dollar gaming company and take on rap superstar Double G as a business partner.</div><div class="quoteExpand">Click to expand...</div></blockquote>
</aside>
</div>
<div class="ToggleTriggerAnchor bbCodeSpoilerContainer">
<button type="button" class="button bbCodeSpoilerButton ToggleTrigger Tooltip JsOnly" data-target="> .SpoilerTarget"><span>Spoiler: <span class="SpoilerTitle">MediaInfo</span></span></button>
<div class="SpoilerTarget bbCodeSpoilerText">General<br>
Unique ID : 64222066265626208550239786071523052600 (0x3050B855457DD25D2B3984183C0FCC38)<br>
Complete name : Game.Shakers.S03E01.Babe.Loves.Danger.1080p.AMZN.WEB-DL.DDP5.1.H.264-LAZY.mkv<br>
Format : Matroska<br>
Format version : Version 4<br>
File size : 1.51 GiB<br>
Duration : 22 min 42 s<br>
Overall bit rate : 9 548 kb/s<br>
Frame rate : 23.976 FPS<br>
Encoded date : 2023-12-19 18:31:58 UTC<br>
Writing application : mkvmerge v81.0 ('Milliontown') 64-bit<br>
Writing library : libebml v1.4.4 + libmatroska v1.7.1<br>
<br>
Video<br>
ID : 1<br>
Format : AVC<br>
Format/Info : Advanced Video Codec<br>
Format profile : High@L4<br>
Format settings : CABAC / 4 Ref Frames<br>
Format settings, CABAC : Yes<br>
Format settings, Reference frames : 4 frames<br>
Codec ID : V_MPEG4/ISO/AVC<br>
Duration : 22 min 42 s<br>
Bit rate mode : Constant<br>
Bit rate : 8 906 kb/s<br>
Nominal bit rate : 10 000 kb/s<br>
Width : 1 920 pixels<br>
Height : 1 080 pixels<br>
Display aspect ratio : 16:9<br>
Frame rate mode : Constant<br>
Frame rate : 23.976 (24000/1001) FPS<br>
Color space : YUV<br>
Chroma subsampling : 4:2:0<br>
Bit depth : 8 bits<br>
Scan type : Progressive<br>
Bits/(Pixel*Frame) : 0.179<br>
Stream size : 1.41 GiB (93%)<br>
Default : Yes<br>
Forced : No<br>
Color range : Limited<br>
Color primaries : BT.709<br>
Transfer characteristics : BT.709<br>
Matrix coefficients : BT.709<br>
<br>
Audio<br>
ID : 2<br>
Format : E-AC-3<br>
Format/Info : Enhanced AC-3<br>
Commercial name : Dolby Digital Plus<br>
Codec ID : A_EAC3<br>
Duration : 22 min 42 s<br>
Bit rate mode : Constant<br>
Bit rate : 640 kb/s<br>
Channel(s) : 6 channels<br>
Channel layout : L R C LFE Ls Rs<br>
Sampling rate : 48.0 kHz<br>
Frame rate : 31.250 FPS (1536 SPF)<br>
Compression mode : Lossy<br>
Stream size : 104 MiB (7%)<br>
Language : English<br>
Service kind : Complete Main<br>
Default : Yes<br>
Forced : No<br>
<br>
Text<br>
ID : 3<br>
Format : UTF-8<br>
Codec ID : S_TEXT/UTF8<br>
Codec ID/Info : UTF-8 Plain Text<br>
Duration : 22 min 1 s<br>
Bit rate : 87 b/s<br>
Frame rate : 0.377 FPS<br>
Count of elements : 498<br>
Stream size : 14.1 KiB (0%)<br>
Title : SDH<br>
Language : English<br>
Default : No<br>
Forced : No</div>
</div><br>
Screenshots:<br>
<img src="https://i.imgur.com/NkB4MZP.jpg" class="bbCodeImage LbImage" alt="[​IMG]" data-url="https://i.imgur.com/NkB4MZP.jpg" style=""> <br>
<br>
<div class="bbCodeBlock bbCodeVfcHH HiddenContent">
<div class="attribution type">Hidden Content:</div>
<blockquote>You must either reply or click 'Like' to see the hidden information contained here.</blockquote>
</div>
<div class="messageTextEndMarker">&nbsp;</div>
</blockquote>
</article>]]></description>
                <author><![CDATA[LazyRips]]></author>
                </item>

                
                <item>
                <title><![CDATA[【Actresses】Samantha Phillips - The Other Man (1994)720p]]></title>
                <link><![CDATA[https://sharemania.us/threads/samantha-phillips-the-other-man-1994-720p.234299/]]></link>
                <description><![CDATA[<article>
<blockquote class="messageText SelectQuoteContainer ugc baseHtml">
Samantha Phillips - The Other Man (1994)720p<br>
<br>
<a href="https://imgbox.com/mwSiXegL" target="_blank" class="externalLink" rel="nofollow"><img src="https://thumbs2.imgbox.com/31/dc/mwSiXegL_t.jpg" class="bbCodeImage LbImage" alt="[​IMG]" data-url="https://thumbs2.imgbox.com/31/dc/mwSiXegL_t.jpg"></a> <a href="https://imgbox.com/BlgMRm0B" target="_blank" class="externalLink" rel="nofollow"><img src="https://thumbs2.imgbox.com/21/8c/BlgMRm0B_t.jpg" class="bbCodeImage LbImage" alt="[​IMG]" data-url="https://thumbs2.imgbox.com/21/8c/BlgMRm0B_t.jpg"></a> <a href="https://imgbox.com/hdzrzL1z" target="_blank" class="externalLink" rel="nofollow"><img src="https://thumbs2.imgbox.com/73/2f/hdzrzL1z_t.jpg" class="bbCodeImage LbImage" alt="[​IMG]" data-url="https://thumbs2.imgbox.com/73/2f/hdzrzL1z_t.jpg"></a> <a href="https://imgbox.com/PIzulbim" target="_blank" class="externalLink" rel="nofollow"><img src="https://thumbs2.imgbox.com/cc/15/PIzulbim_t.jpg" class="bbCodeImage LbImage" alt="[​IMG]" data-url="https://thumbs2.imgbox.com/cc/15/PIzulbim_t.jpg"></a> <a href="https://imgbox.com/qTJRrBAK" target="_blank" class="externalLink" rel="nofollow"><img src="https://thumbs2.imgbox.com/58/b7/qTJRrBAK_t.jpg" class="bbCodeImage LbImage" alt="[​IMG]" data-url="https://thumbs2.imgbox.com/58/b7/qTJRrBAK_t.jpg"></a> <a href="https://imgbox.com/OywuvaUt" target="_blank" class="externalLink" rel="nofollow"><img src="https://thumbs2.imgbox.com/a4/20/OywuvaUt_t.jpg" class="bbCodeImage LbImage" alt="[​IMG]" data-url="https://thumbs2.imgbox.com/a4/20/OywuvaUt_t.jpg"></a><br>
Duration: 0:02:29 Resolution: 1280x720 Format: mp4 Size: 85.14 MB<br>
<div class="bbCodeBlock bbCodeVfcHH HiddenContent">
<div class="attribution type">Hidden Content:</div>
<blockquote>You must either reply or click 'Like' to see the hidden information contained here.</blockquote>
</div>
<div class="messageTextEndMarker">&nbsp;</div>
</blockquote>
</article>]]></description>
                <author><![CDATA[piqeros]]></author>
                </item>

                </channel></rss>